<?xml version="1.0" encoding="UTF-8"?>
<svg id="Camada_1" data-name="Camada 1" xmlns="http://www.w3.org/2000/svg" viewBox="0 0 1080 1080">
  <defs>
    <style>
      .cls-1 {
        fill: #5955a1;
      }
    </style>
  </defs>
  <path class="cls-1" d="M508.84,546.52c-30.56-78.09-61.76-155.93-91.43-234.35-18.07-47.77-35.97-96.13-19.71-150.09-49.03,0-96.97-.23-144.9,.22-8.31,.08-16.19,4.03-23.18,9.02-18.17,12.95-29.51,45.19-19.89,68.42,7.12,17.2,25.36,5.55,38.38,7.81,8.9,1.55,18.31,.79,27.43,.21,9.38-.6,13.14,3.71,15.94,12.3,46.52,142.7,106.75,280.11,162.05,419.43,12.66,34.35,26.45,68.33,37.63,103.15,9.27,28.88,18.8,58.19,16.17,89.37-2.24,26.6-16.14,38.29-42.26,37.03-4.98-.24-10.09-4.79-15.41-.34,38.06,19.18,80.44,11.23,110.45-21.01,40.59-43.61,43.1-95.44,26.22-148.09-21.18-66.05-48.41-130.02-77.48-193.08ZM869.45,230.02c3.03-11.12,5.29-22.38,3.91-33.96-2.05-17.16-8.31-33.11-27.76-33.96-35.47-1.55-71.06-.44-106.61-.44,27.33,13.58,29.72,37.45,24.29,61.13-18.3,79.81-54.86,152.76-87.95,231.64-32.27-72.92-64.22-140.87-85.96-213.08-9.18-30.51-14.64-59.53,26.02-80.17-38.74,0-70.83-.53-102.89,.17-24.54,.53-35.94,12.52-36.91,37.25-1.04,26.51,6.58,51.54,15.74,75.82,46.35,122.83,98.84,243.14,150.57,363.76,9.96,25.98,19.92,51.95,31.87,83.12,63.56-159.4,135.37-308.51,190.16-464.64,2.98-8.48,3.74-17.74,5.53-26.64Z"/>
  <path class="cls-1" d="M586.32,739.6c-21.18-66.05-48.41-130.02-77.48-193.09-30.56-78.09-61.76-155.93-91.43-234.35-18.07-47.77-35.97-96.13-19.71-150.09-49.03,0-96.97-.23-144.9,.22-8.31,.08-16.19,4.03-23.18,9.02-18.17,12.95-29.51,45.19-19.89,68.42,7.12,17.2,25.04,8.86,38.59,9.32,9.03,.31,18.09-.71,27.22-1.3,9.38-.6,13.14,3.71,15.94,12.3,46.52,142.7,106.75,280.11,162.04,419.43,12.66,34.35,26.45,68.33,37.63,103.15,9.27,28.88,18.8,58.19,16.17,89.37-2.24,26.6-16.14,38.29-42.26,37.03-4.98-.24-10.09-4.8-15.41-.34,38.06,19.18,80.44,11.23,110.45-21.01,40.59-43.61,43.1-95.44,26.22-148.09Z"/>
  <path class="cls-1" d="M873.36,196.06c-2.05-17.16-8.31-33.11-27.76-33.96-35.47-1.55-71.06-.44-106.61-.44,27.33,13.58,29.72,37.45,24.29,61.13-18.3,79.81-54.86,152.76-87.95,231.64-32.27-72.92-64.22-140.87-85.96-213.08-9.18-30.51-14.64-59.53,26.02-80.17-38.74,0-70.83-.52-102.89,.17-24.54,.53-35.94,12.52-36.91,37.25-1.04,26.51,6.58,51.54,15.74,75.82,46.35,122.83,98.84,243.14,150.57,363.76,9.96,25.98,19.92,51.95,31.87,83.12,63.56-159.4,135.37-308.51,190.16-464.64,2.98-8.48,3.74-17.74,5.53-26.64-1-2.27-1.95-4.46-2.92-6.41-.97-1.95-1.95-3.65-3-4.92-.7-.85-1.44-1.51-2.22-1.92-.78-.41-1.61-.58-2.51-.45,.9-.13,1.73,.04,2.51,.45,.78,.41,1.52,1.07,2.22,1.92,1.05,1.27,2.04,2.97,3,4.92,.97,1.95,1.92,4.15,2.92,6.41,3.03-11.12,5.29-22.38,3.91-33.96Z"/>
</svg>